<?xml version="1.0"?>
<svg width="1024" height="1024" viewBox="0 0 1024 1024" xmlns="http://www.w3.org/2000/svg" xmlns:svg="http://www.w3.org/2000/svg">
 <rect width="1024" height="1024" rx="192" fill="#5cb85c"/>
 <g class="layer" fill="#fff">
  <title>Layer 1</title>
  <g id="svg_15" transform="matrix(1.96693 0 0 2.32685 -494.333 -278.155)">
   <path d="m363.3,321.78c10.75,5.63 25.62,11.3 37.87,14.45c71.45,18.44 151.3,18.27 222.7,-0.35c11.6,-3.02 26.16,-7.75 36.22,-13.42c-3.57,29.93 -12.2,54.35 -30.2,78.8a143.8,143.8 0 0 1 -93.42,56.59c-80.53,12.5 -151.9,-38 -169.6,-116.44a261,261 0 0 1 -3.57,-19.63" id="svg_2"/>
   <path d="m579.1,223.9c35.85,7.22 103.74,14.19 118.08,55.22c0.68,1.94 1.31,4.43 1.89,6.44c32.67,10.06 60.34,47.11 40.59,80.34c-14.03,23.61 -37.55,32.76 -62.9,39.54c20.7,5.09 41.14,11.94 60.3,21.1c14.6,7 39.5,23.86 27.6,43.01c-14.26,22.9 -50.36,32.25 -74.61,40.13c-17.27,5.6 -37.08,9.1 -54.82,12.38a683,683 0 0 1 -257.75,-1.5c-29.62,-5.73 -63.82,-14.82 -90.58,-28.87c-11.38,-6.58 -26.9,-15.02 -30.75,-28.53c-2.45,-8.61 1.96,-17.5 8.46,-23.1c22.85,-19.65 58.99,-28.73 87.37,-35c-11.62,-23.7 -21.01,-42.18 -25.21,-68.84c-2.7,-17.16 -4.53,-37.3 -2.3,-54.8c0.48,-3.7 4.05,-10.69 6.3,-13.67c18.72,-24.88 64.5,-35.13 93.78,-40.14c6.76,-1.23 13.54,-2.09 20.35,-3.01q6.12,6.27 12.07,12.72c-8.9,1.81 -18.53,2.79 -27.58,4.23c-21.89,3.47 -86.37,17.38 -89.18,44.13c-4.8,45.65 10.69,92.75 37.12,129.93c-26.1,4.28 -55.18,9.68 -78.67,22.07c-9.88,5.2 -22.58,19.02 -13.34,29.42c20.46,23.04 68.2,34.81 97.4,39.83c90.14,15.27 184.22,14.73 273.98,-3.4c16,-3.23 105.13,-22.89 81.62,-53.65c-14.54,-19.03 -66.49,-31.47 -90.88,-34.7q6.72,-10.5 13.74,-20.8c22.06,-7.41 36.77,-8.6 55.56,-24.94c31.16,-27.1 1.94,-69.1 -32.61,-69.58c-0.27,-8.88 -0.94,-17.68 -6.49,-24.99c-18.15,-23.9 -81.74,-33.57 -109.84,-37.54q5.72,-6.66 11.3,-13.43" id="svg_4"/>
   <path d="m385.41,424.74c1.2,0.7 10.34,10.49 12.22,12.25c50.75,47.36 129.03,56.83 190.96,26.78c20.1,-9.76 35.56,-22.83 51.03,-39.23c16.07,3.52 31.32,6.85 46.38,13.58c46.86,20.93 16.15,38.42 -13.88,49.12c-16.35,5.4 -33.41,8.78 -50.54,11.76c-79.79,13.87 -165.76,13.02 -244.81,-4.81c-19.24,-4.34 -53.87,-14.59 -64.23,-31.64c-0.37,-4.85 -0.02,-8.04 3.3,-11.92c13.36,-15.57 50.17,-23.23 69.57,-25.89" id="svg_6"/>
   <path d="m549.84,253.44c11.57,1.25 25,2.06 36.27,4.32c127.75,25.69 61.17,60.13 -19.5,69.6l-0.8,0.1c-16.34,2.16 -49,3.83 -66.67,2.9c-41.4,-2.8 -89.74,-4.96 -125.71,-27.73c-13.38,-8.47 -8.06,-20.03 3.8,-26.33c28.78,-15.28 65.28,-20.13 97.4,-22.53c1.31,0.36 7.15,4.56 8.72,5.66c5.95,4.15 19.73,11.76 26.14,13.1c9.63,2.02 32.73,-14.03 40.35,-19.09" id="svg_7"/>
   <path d="m468.66,145.6c21.2,-1.79 36.73,22.51 43.78,39.29c6.27,-15.22 19.98,-36.8 37.93,-39.06c5.74,-0.71 11.52,0.95 16.02,4.59c20.87,16.6 5.75,50.16 -7.27,66.65c-13.86,17.13 -27.52,27.37 -47.15,36.86c-28.52,-12.34 -56.77,-37.4 -63.97,-68.62c-3.77,-16.39 2.05,-36.2 20.66,-39.7" id="svg_13"/>
   <path d="m682.61,320.45c12.42,0.9 15.23,3.04 22.36,13.38c8.73,12.65 -3.44,21.08 -13.32,27.15c-6.22,3.5 -12.98,5.78 -19.75,7.94c3.05,-10.26 6.25,-20.31 8,-30.9c0.97,-5.85 1.77,-11.72 2.71,-17.57" id="svg_14"/>
  </g>
 </g>
</svg>
