<svg xmlns="http://www.w3.org/2000/svg" width="1024" height="1024" viewBox="0 0 1024 1024"><path fill-rule="evenodd" d="M504.79 80.23q9.35-.3 18.69.06a326.8 326.8 0 0 1 225.58 101.76 316.6 316.6 0 0 1 86.8 225.6 327.2 327.2 0 0 1-82.66 205.48c-13.3 14.99-26.74 26.23-41.14 39.7-18.4 1.55-50.97 2.82-68.9 2.46 8.55-7.14 11.14-11.05 16.64-20.93 40.9-26.22 71.43-57.66 95.2-100.33a273.6 273.6 0 0 0 24.8-211.09c-19.64-68.02-68.9-128.03-130.6-162.28a282 282 0 0 0-216.68-24.18 273 273 0 0 0-165.69 132.3c-16.86 32.9-27.24 62.68-31.55 99.65-12.57 107.66 37.93 208.7 130.69 264.9 9.38-10.4 21.73-13.6 35.15-15.01.64-6.51 2.56-15.87 3.75-22.59q3.3-19.5 7.5-38.82c-5.38 1.96-11.35 3.68-16.2 6.75-13.86 8.77-13.09 20.5-12.48 29.82.34 5.21.63 9.66-1.7 12.42-1.32 1.56-3.33 2.16-5.31 2.25-3.52.15-7.07-.65-9.62-3.2-3.77-3.75-4.7-9.84-4.67-14.96.06-10.62 5.3-20.46 12.8-27.75 21.38-20.78 73.36-28.68 102.93-28.21.13 9.04-.88 18.78-8.8 24.86-4.58 3.51-9.78 1.46-14.64-.44a54 54 0 0 0-3.79-1.39 72 72 0 0 0-8.08-2c-4.45 19.42-7.08 38.9-11.41 58.04 7.09-.69 14.83-2.13 22.1-3.02-1.2 5.4-2.32 9.68-3.87 14.99-6.6 1.18-14.68 2.1-21.46 3.1-.8 6.32-2.62 15.06-3.78 21.5-1.72 9.57-3.84 23.5-7.16 32.39a53 53 0 0 1-27.57 29.48c-8.55 3.83-19.32 5.1-28.13 1.5-18.15-7.43-18.67-32.66-13.96-48.62 1.15-3.89 2.63-7.67 4.06-11.42-24.66 4.5-36.75 5.47-55.27-12.9-11.72-11.62-23.13-22.35-33.78-35.24a319 319 0 0 1-74.04-191.27C182.41 229 321.61 86.34 504.79 80.23M395.3 633.2q-5.22.44-10.19 2.1c-20.14 6.53-31.56 43.74-18.94 60.53 18.65 9.15 23.42-16.2 25.36-28.71 1.04-6.75 2.62-13.83 3.6-20.61.57-3.98 2.1-9.05 2.42-12.84l-.54-.62Z"/><path d="M363.3 321.78c10.75 5.63 25.62 11.3 37.87 14.45 71.45 18.44 151.3 18.27 222.7-.35 11.6-3.02 26.16-7.75 36.22-13.42-3.57 29.93-12.2 54.35-30.2 78.8a143.8 143.8 0 0 1-93.42 56.59c-80.53 12.5-151.9-38-169.6-116.44a261 261 0 0 1-3.57-19.63"/><path fill-rule="evenodd" d="M349.81 721.62c36.3-2.83 63.18 16 72.8 51.11a101 101 0 0 1 3.13 18.4c.71 8.63.67 20.11.63 30.65-.01 4.51-.02 8.85.02 12.72l.08 5.73c.19 13.22.46 31.86-1.13 42.39a71 71 0 0 1-8.64 25.25c-7.22 12.49-18.07 19.38-31.78 23-16.68 3.3-32.54.75-46.78-8.59a64 64 0 0 1-27.99-43.04c-2.53-16.5-2.38-33.48-2.23-50.3.05-5.35.1-10.69.06-16q-.06-5.09-.17-10.33c-.7-34.95-1.47-72.93 42-80.99m14.46 47.42c-1.47 1.76-2.52 3.48-2.62 5.83-.2 5.13-.17 10.44-.15 15.65l.02 4.45.18 41.02c.04 5.33-.05 10.65-.14 15.97-.08 4.96-.16 9.93-.14 14.89q0 1.34-.04 2.79c-.15 6.97-.33 15.01 8.69 13.81 2.41-2.12 3.41-3.75 3.47-7.04.2-10.93.12-21.97.03-32.98q-.07-8.61-.09-17.16v-29.42l.02-3.43c.03-5.09.06-10.16-.23-15.25-.36-6.52-2.06-9.68-9-9.12"/><path d="M579.1 223.9c35.85 7.22 103.74 14.19 118.08 55.22.68 1.94 1.31 4.43 1.89 6.44 32.67 10.06 60.34 47.11 40.59 80.34-14.03 23.61-37.55 32.76-62.9 39.54 20.7 5.09 41.14 11.94 60.3 21.1 14.6 7 39.5 23.86 27.6 43.01-14.26 22.9-50.36 32.25-74.61 40.13-17.27 5.6-37.08 9.1-54.82 12.38a683 683 0 0 1-257.75-1.5c-29.62-5.73-63.82-14.82-90.58-28.87-11.38-6.58-26.9-15.02-30.75-28.53-2.45-8.61 1.96-17.5 8.46-23.1 22.85-19.65 58.99-28.73 87.37-35-11.62-23.7-21.01-42.18-25.21-68.84-2.7-17.16-4.53-37.3-2.3-54.8.48-3.7 4.05-10.69 6.3-13.67 18.72-24.88 64.5-35.13 93.78-40.14 6.76-1.23 13.54-2.09 20.35-3.01q6.12 6.27 12.07 12.72c-8.9 1.81-18.53 2.79-27.58 4.23-21.89 3.47-86.37 17.38-89.18 44.13-4.8 45.65 10.69 92.75 37.12 129.93-26.1 4.28-55.18 9.68-78.67 22.07-9.88 5.2-22.58 19.02-13.34 29.42 20.46 23.04 68.2 34.81 97.4 39.83 90.14 15.27 184.22 14.73 273.98-3.4 16-3.23 105.13-22.89 81.62-53.65-14.54-19.03-66.49-31.47-90.88-34.7q6.72-10.5 13.74-20.8c22.06-7.41 36.77-8.6 55.56-24.94 31.16-27.1 1.94-69.1-32.61-69.58-.27-8.88-.94-17.68-6.49-24.99-18.15-23.9-81.74-33.57-109.84-37.54q5.72-6.66 11.3-13.43"/><path d="M216.76 683.2c19.55-.72 41.48 12.56 54.12 26.34 17.92 19.5 26.6 42.1 25.72 68.5-.92 27.94-31.23 18.57-44.47 6.3-7.05-6.53-4.75-10.14-5.48-18.36-.78-8.8 3.45-30.83-8.2-33.14-3.95-.56-5.18 5.05-5.25 8.76-.24 12.12-.08 25.6 0 37.72l-.13 55c.06 8.08.84 15.84 7.04 22 1.2 1.18 2.25 1.77 3.93 1.7 7.5-3.57.86-34.56 5.03-42.4 1.12-2.11 4.48-3.3 6.54-3.92l.61-.18a45 45 0 0 1 30.35 10.46c5.94 5 10.09 11.82 10.38 19.72.7 17.92 1.48 40.29-11.16 54.68-18.14 20.4-49.55 9.88-67.17-5.38-22.5-19.46-36.05-47.77-37.91-77.33a552 552 0 0 1-.8-42.67c.47-25.27-4.06-56.09 13.37-76.78 6.47-7.65 13.9-10.32 23.48-11.01"/><path d="M385.41 424.74c1.2.7 10.34 10.49 12.22 12.25 50.75 47.36 129.03 56.83 190.96 26.78 20.1-9.76 35.56-22.83 51.03-39.23 16.07 3.52 31.32 6.85 46.38 13.58 46.86 20.93 16.15 38.42-13.88 49.12-16.35 5.4-33.41 8.78-50.54 11.76-79.79 13.87-165.76 13.02-244.81-4.81-19.24-4.34-53.87-14.59-64.23-31.64-.37-4.85-.02-8.04 3.3-11.92 13.36-15.57 50.17-23.23 69.57-25.89"/><path d="M549.84 253.44c11.57 1.25 25 2.06 36.27 4.32 127.75 25.69 61.17 60.13-19.5 69.6l-.8.1c-16.34 2.16-49 3.83-66.67 2.9-41.4-2.8-89.74-4.96-125.71-27.73-13.38-8.47-8.06-20.03 3.8-26.33 28.78-15.28 65.28-20.13 97.4-22.53 1.31.36 7.15 4.56 8.72 5.66 5.95 4.15 19.73 11.76 26.14 13.1 9.63 2.02 32.73-14.03 40.35-19.09"/><path d="M818.11 642.21c9.16-.4 25.31-1.85 25.87 11.15.28 6.56 1.2 25.1-2.66 29.85-8.67 8.61-24.54 1.34-35.97 3.18-11.12 1.8-10.82 13.41-9.96 22.4 1.42 14.86 34.82-2.65 43.49 5.92 6.83 5.31 4.02 14.54 4.65 21.7 2.82 32.25-17.29 20.62-37.59 20.94-11.21.17-15.19 21.84-5.38 29.16 9.77.4 20.27-3.46 30.23-3.66 15.24-.3 13.78 14 13.57 24.77.1 7.57 2.07 20.2-8.1 22-5.97 1.05-12.64 1.05-18.75 1.49q-12.15.99-24.23 2.76c-12.18 1.8-24.16 5.33-36.2 7.73-5.53 1.1-9.94-.72-10.17-6.9-.35-9.53-.28-19.18-.3-28.79l.08-55.39-.16-56.1c-.03-9.72-.45-19.62.06-29.32.13-2.45.26-7.38 1.92-9.2 8.81-9.66 55.87-12.95 69.6-13.69"/><path d="M721.32 659.14q1.97-.28 3.95-.1a6 6 0 0 1 4.2 2.33 11 11 0 0 1 2 5.07c.27 5.47.39 19.73.01 24.35-1.13 14.07-28.32 14.78-37.6 21.64a13.2 13.2 0 0 0-5.37 9.56c-.2 3.38-1.12 17.6 1.31 19.45 6.32 4.81 26.4-9.05 35.1-7.21 2.3.49 3.56 1.3 4.8 2.99a12.4 12.4 0 0 1 1.78 5.24c-.03 6.13.5 19.24-.2 24.6-1.76 13.24-28.42 14.17-37.47 21.04-2.81 2.14-5.17 5.28-5.3 8.67.04 4.37-1.29 15 1.7 18.22 2.98 3.21 10.2-.3 13.95-1.42 6.48-1.91 13.36-5.5 20.08-6.1 4.5-.41 7.35 3.13 7.6 7.3.46 7.67.15 15.6.39 23.31.14 4.73-2.65 7.83-5.86 10.71-4.97 3.2-23.56 9.83-30.43 12.44a1874 1874 0 0 1-31.63 11.75c-26.73 9.72-24.95 9.65-24.93-17.35l.03-42.82-.08-79.26c0-13.27-.08-26.58.24-39.85.24-10.11 12.2-14.3 20.38-16.74 19.56-5.82 41.3-14.44 61.35-17.82"/><path d="M519.82 719.14c12.6-1.03 8.43 13.51 9.19 20.93 3.25 31.62-19.38 22.27-37.72 33.35-5.19 3.14-3.8 19.7-3.76 25.57 4.18 5.99 7.56 3.5 13.42 2.62 9.05-1.36 27.99-10.13 27.74 6.08-.1 6.78 1.16 16.2-.4 22.4-4.76 18.91-31.08 10.15-38.6 23.9-1.4 3-.95 11.14-.88 14.71q.26 13.97.35 27.94c.07 7.09 1.5 18.18-3.29 23.63-4.8 3.61-43.64 14.18-45.83 6.86-1.73-5.81-1.14-25.09-1.14-32.1l-.21-45.37-.18-71.58c-.01-11.83-.15-23.68.09-35.5.13-6.48 4.64-8.78 10.27-9.85 18.34-3.47 36.9-5.92 55.12-10.08 5.28-1.2 10.49-2.58 15.83-3.5"/><path d="M618.95 691.58c13.72-2.14 9.74 14.3 10.1 22.64-.05 4.06.33 8.1-.56 12.1-4.1 18.32-36.45 11.34-38.98 28.07-.64 4.25-2.18 18.86 2.24 21.24 10.08 5.4 35.61-18.4 36.74 4.32-.41 7.2 1.06 15.87-.88 22.78-3.05 10.89-15.91 13.1-25.02 15.99-4.3 1.37-9.8 2.93-11.7 7.08-2.37 5.15-1.61 14.64-1.68 20.28-.15 9.7.28 19.48.13 29.18-.12 7.71 1.51 15.4-3.98 21.4-5.9 4.06-34.85 13.14-41.91 11.43-5.16-1.24-3.37-31.33-3.37-37.17l-.03-68.81-.08-48.44c-.05-9.66-.2-19.2.06-28.9-.28-9.3 8.9-12.52 16.81-14.52 20.76-5.27 41.54-13.04 62.11-18.67"/><path fill-rule="evenodd" d="M637.04 553.16c16.76-2.4 21.3 12.72 18.08 26.17-3.09 12.91-11.87 24.12-22.92 31.24-3.94 2.54-8.14 4.32-12.01 6.8l-.4.25c.72 15.01 4.34 24.93 21.55 15.05 5.89-3.38 10.49-8.82 14.92-13.9.6 13.36-8.84 27-20.32 33.11-15.86 8.45-33 8.97-42.64-8.59a62 62 0 0 1-11.2 12.13c-9.7 7.96-22.56 12.41-35.2 11.11-9.18-.94-14.68-5.85-20-12.74-8.54 13.43-38.75 28.8-49.97 11.82-7.66-11.59 1.5-47.03 5.46-62.33l.27-1.06c-4.3.87-7.6 1.14-11.94 1.3-1.8 9.34-3.78 20.76-7.54 29.38-2.74 6.3-5.82 8.81-11.92 11.06l8.07-38.08c.71-3.53.39-4.3-.53-6.6-.25-.61-.53-1.31-.85-2.2-5.7-15.83 6.85-23.11 18.97-27.86a424 424 0 0 0-3.24 18.74c10.02-.93 26.82-4.82 37.6-6.63-2.13 9.57-12.45 57.12-9.28 63.09.72 1.36 2.3 2.23 3.76 2.55 5.64 1.22 12.66-2.5 17.34-5.37a93.5 93.5 0 0 1 6.62-46.88c5.65-13.4 13.94-24.49 27.83-29.89 6.69-2.59 15.98-4.73 22.75-1.65 12.2 5.53 9.37 23.9 4.73 33.65-6.2 13.01-20.57 26.04-34.15 30.67.03 2.27.14 4.56.43 6.8 2.32 18.46 20.6 12.14 30.65 4.62 3.22-2.42 5.6-5.03 8.34-7.92-1.37-17.68 5.8-44.62 16.51-59.02 7.64-10.26 17.6-16.83 30.23-18.82m-68.27 20.63c-10.31 8.6-15.41 27.38-16.66 40.18l4-2.1a42 42 0 0 0 17.82-26.2c.91-4.44 1.5-12.05-5.16-11.88m67.74-8.42c-9.61 7.57-13.85 24.18-15.26 35.77l-.38 3.42 4.58-2.56c9.23-7.05 14.94-15.37 16.56-27.1.56-4-.25-9.76-5.5-9.53"/><path d="M468.66 145.6c21.2-1.79 36.73 22.51 43.78 39.29 6.27-15.22 19.98-36.8 37.93-39.06 5.74-.71 11.52.95 16.02 4.59 20.87 16.6 5.75 50.16-7.27 66.65-13.86 17.13-27.52 27.37-47.15 36.86-28.52-12.34-56.77-37.4-63.97-68.62-3.77-16.39 2.05-36.2 20.66-39.7"/><path d="M682.61 320.45c12.42.9 15.23 3.04 22.36 13.38 8.73 12.65-3.44 21.08-13.32 27.15-6.22 3.5-12.98 5.78-19.75 7.94 3.05-10.26 6.25-20.31 8-30.9.97-5.85 1.77-11.72 2.71-17.57"/></svg>
